HIERARCHY
ROOT joint_0
{
	OFFSET 0.000000 0.000000 0.000000
	CHANNELS 6 Xposition Yposition Zposition Zrotation Yrotation Xrotation 
	JOINT joint_1
	{
		OFFSET 3.886261 -0.864090 119.041016
		CHANNELS 3 Zrotation Yrotation Xrotation
		JOINT joint_2
		{
			OFFSET -8.814819 -1.400200 108.366943
			CHANNELS 3 Zrotation Yrotation Xrotation
			JOINT joint_3
			{
				OFFSET -10.127777 -1.846550 108.123047
				CHANNELS 3 Zrotation Yrotation Xrotation
				JOINT joint_4
				{
					OFFSET -0.104309 -2.852760 150.227051
					CHANNELS 3 Zrotation Yrotation Xrotation
					JOINT joint_5
					{
						OFFSET 20.206146 2.292160 92.163940
						CHANNELS 3 Zrotation Yrotation Xrotation
						End Site
						{
							OFFSET 0.000000 0.000000 0.000000
						}
					}
				}
				JOINT joint_6
				{
					OFFSET 0.345886 -34.260384 83.589966
					CHANNELS 3 Zrotation Yrotation Xrotation
					JOINT joint_7
					{
						OFFSET -3.824402 -146.174217 -19.015991
						CHANNELS 3 Zrotation Yrotation Xrotation
						JOINT joint_8
						{
							OFFSET 134.098145 -24.802032 -261.230957
							CHANNELS 3 Zrotation Yrotation Xrotation
							JOINT joint_9
							{
								OFFSET 123.899048 209.340523 59.187012
								CHANNELS 3 Zrotation Yrotation Xrotation
								End Site
								{
									OFFSET 0.000000 0.000000 0.000000
								}
							}
						}
					}
				}
				JOINT joint_10
				{
					OFFSET -0.423798 31.098438 84.831055
					CHANNELS 3 Zrotation Yrotation Xrotation
					JOINT joint_11
					{
						OFFSET 3.093201 146.891491 -12.504028
						CHANNELS 3 Zrotation Yrotation Xrotation
						JOINT joint_12
						{
							OFFSET 195.631927 -20.967743 -219.380981
							CHANNELS 3 Zrotation Yrotation Xrotation
							JOINT joint_13
							{
								OFFSET -8.651001 -247.511261 -36.616089
								CHANNELS 3 Zrotation Yrotation Xrotation
								End Site
								{
									OFFSET 0.000000 0.000000 0.000000
								}
							}
						}
					}
				}
			}
		}
	}
	JOINT joint_14
	{
		OFFSET 6.948090 -87.642914 -106.942017
		CHANNELS 3 Zrotation Yrotation Xrotation
		JOINT joint_15
		{
			OFFSET -34.394226 4.543823 -458.972961
			CHANNELS 3 Zrotation Yrotation Xrotation
			JOINT joint_16
			{
				OFFSET -17.051544 6.964645 -485.636009
				CHANNELS 3 Zrotation Yrotation Xrotation
				JOINT joint_17
				{
					OFFSET 190.520630 40.462875 -83.888000
					CHANNELS 3 Zrotation Yrotation Xrotation
					End Site
					{
						OFFSET 0.000000 0.000000 0.000000
					}
				}
			}
		}
	}
	JOINT joint_18
	{
		OFFSET 3.929901 87.535423 -107.188965
		CHANNELS 3 Zrotation Yrotation Xrotation
		JOINT joint_19
		{
			OFFSET -34.463440 -10.383845 -458.873047
			CHANNELS 3 Zrotation Yrotation Xrotation
			JOINT joint_20
			{
				OFFSET 14.641205 -11.071349 -485.637978
				CHANNELS 3 Zrotation Yrotation Xrotation
				JOINT joint_21
				{
					OFFSET 194.569275 -4.161928 -84.249998
					CHANNELS 3 Zrotation Yrotation Xrotation
					End Site
					{
						OFFSET 0.000000 0.000000 0.000000
					}
				}
			}
		}
	}
}
MOTION
Frames: 17
Frame Time: 0.016667
-192.253815 -105.104210 1157.161987 -1.788901 -0.044212 0.329771 -1.439222 -5.700550 3.770203 -1.819884 0.679320 -0.827435 -1.712031 -1.303359 0.708827 -0.145031 3.049891 0.304265 0.000000 0.000000 0.000000 1.815469 11.836099 -3.136981 11.467993 12.267607 -3.194104 -47.386679 10.614548 -88.060977 0.000000 0.000000 0.000000 6.102097 18.379770 -11.872204 3.733949 19.240735 20.666693 35.910547 -33.648830 52.060987 0.000000 0.000000 0.000000 3.665748 0.655254 -1.084553 3.582366 -0.707816 -0.063216 3.548310 0.582049 1.439437 0.000000 0.000000 0.000000 -0.460290 0.797599 2.444418 -0.283611 0.042268 0.110297 -0.284379 -0.234642 -0.127942 0.000000 0.000000 0.000000 
-192.205551 -105.213600 1157.172974 -1.761537 -0.028422 0.323356 -1.416960 -5.868259 3.568919 -1.774952 0.705818 -0.784029 -1.675897 -1.344816 0.673420 -0.159072 3.145217 0.353308 0.000000 0.000000 0.000000 1.848289 11.873970 -2.977873 11.491913 12.329017 -3.057835 -47.352713 10.636800 -88.120503 0.000000 0.000000 0.000000 6.070990 18.408085 -11.784035 3.849854 19.260719 20.714871 35.943866 -33.700130 51.950372 0.000000 0.000000 0.000000 3.646626 0.653663 -1.069014 3.565209 -0.734044 -0.076059 3.531969 0.610375 1.426209 0.000000 0.000000 0.000000 -0.469527 0.791898 2.465416 -0.290521 0.019539 0.099363 -0.291768 -0.225695 -0.130944 0.000000 0.000000 0.000000 
-192.189758 -105.337318 1157.175049 -1.728535 -0.010772 0.317084 -1.395373 -6.035581 3.359324 -1.729904 0.731344 -0.740553 -1.639675 -1.383946 0.637406 -0.173295 3.243362 0.402753 0.000000 0.000000 0.000000 1.869363 11.912507 -2.811447 11.481908 12.393951 -2.939425 -47.320393 10.668094 -88.134251 0.000000 0.000000 0.000000 6.022961 18.440086 -11.705848 3.930852 19.283458 20.775968 35.958839 -33.749903 51.878347 0.000000 0.000000 0.000000 3.625050 0.648438 -1.051558 3.546054 -0.760104 -0.092813 3.513526 0.639152 1.411962 0.000000 0.000000 0.000000 -0.480219 0.782548 2.487223 -0.298979 -0.004751 0.089976 -0.300834 -0.215630 -0.134647 0.000000 0.000000 0.000000 
-192.192337 -105.495697 1157.162964 -1.683831 0.009771 0.312134 -1.377004 -6.210976 3.127944 -1.685564 0.757460 -0.691410 -1.605070 -1.422114 0.597677 -0.188822 3.352606 0.456710 0.000000 0.000000 0.000000 1.869627 11.953994 -2.630120 11.437285 12.461892 -2.843810 -47.283283 10.713185 -88.096492 0.000000 0.000000 0.000000 5.952957 18.480199 -11.634708 3.987166 19.314094 20.853193 35.960948 -33.803605 51.839296 0.000000 0.000000 0.000000 3.599185 0.642147 -1.030982 3.523262 -0.790377 -0.115730 3.491379 0.669481 1.395755 0.000000 0.000000 0.000000 -0.494523 0.770018 2.509925 -0.311100 -0.033392 0.082542 -0.313805 -0.203982 -0.140004 0.000000 0.000000 0.000000 
-192.235367 -105.654060 1157.145996 -1.637484 0.029447 0.307190 -1.358033 -6.379041 2.893375 -1.640294 0.783276 -0.641344 -1.569734 -1.459726 0.556875 -0.203701 3.462471 0.507433 0.000000 0.000000 0.000000 1.869261 11.995130 -2.449077 11.363031 12.535331 -2.755587 -47.252789 10.762052 -88.022267 0.000000 0.000000 0.000000 5.874372 18.521494 -11.573870 4.011995 19.344865 20.939877 35.945972 -33.855721 51.831632 0.000000 0.000000 0.000000 3.572143 0.633261 -1.010134 3.499473 -0.818104 -0.140210 3.468131 0.698668 1.379309 0.000000 0.000000 0.000000 -0.508966 0.756884 2.532625 -0.323413 -0.063842 0.076159 -0.327086 -0.190530 -0.145455 0.000000 0.000000 0.000000 
-192.350861 -105.763100 1157.137939 -1.603914 0.043917 0.300069 -1.332070 -6.517295 2.683257 -1.590693 0.804611 -0.595187 -1.529238 -1.491256 0.518970 -0.214636 3.553229 0.542176 0.000000 0.000000 0.000000 1.887277 12.030371 -2.288089 11.265853 12.613828 -2.662793 -47.242600 10.802738 -87.929531 0.000000 0.000000 0.000000 5.799520 18.551370 -11.532141 3.977523 19.361525 21.029980 35.897387 -33.891078 51.872184 0.000000 0.000000 0.000000 3.548120 0.618265 -0.993416 3.478124 -0.833696 -0.158884 3.447196 0.722852 1.364948 0.000000 0.000000 0.000000 -0.519141 0.745254 2.554313 -0.331567 -0.091791 0.070117 -0.336152 -0.175035 -0.149042 0.000000 0.000000 0.000000 
-192.539429 -105.847000 1157.139038 -1.582485 0.050479 0.290134 -1.299218 -6.627371 2.491436 -1.535916 0.823976 -0.548521 -1.483561 -1.518564 0.480491 -0.221439 3.626689 0.559827 0.000000 0.000000 0.000000 1.928461 12.060715 -2.147004 11.127656 12.702844 -2.556925 -47.260509 10.833653 -87.799329 0.000000 0.000000 0.000000 5.731314 18.567378 -11.514107 3.861525 19.360747 21.138585 35.800835 -33.905513 51.991480 0.000000 0.000000 0.000000 3.526654 0.599225 -0.978932 3.458862 -0.835491 -0.171538 3.428173 0.740446 1.352830 0.000000 0.000000 0.000000 -0.525818 0.739557 2.578350 -0.335762 -0.119783 0.062448 -0.341203 -0.157754 -0.150855 0.000000 0.000000 0.000000 
-192.792511 -105.875694 1157.144043 -1.571263 0.054777 0.278889 -1.260847 -6.712813 2.321882 -1.478000 0.839633 -0.506056 -1.433892 -1.540914 0.445118 -0.225164 3.687528 0.564913 0.000000 0.000000 0.000000 1.981518 12.086010 -2.020330 10.976523 12.794219 -2.455971 -47.290089 10.860280 -87.659006 0.000000 0.000000 0.000000 5.660576 18.576906 -11.510703 3.711761 19.352149 21.241478 35.686480 -33.908459 52.131432 0.000000 0.000000 0.000000 3.507784 0.573427 -0.968885 3.441704 -0.828612 -0.180237 3.411143 0.754333 1.342383 0.000000 0.000000 0.000000 -0.528486 0.731972 2.599457 -0.336342 -0.144750 0.056306 -0.342614 -0.138417 -0.151052 0.000000 0.000000 0.000000 
-193.110519 -105.791473 1157.152954 -1.571715 0.066056 0.267864 -1.218580 -6.775826 2.188715 -1.420305 0.850284 -0.474973 -1.382220 -1.555872 0.419138 -0.226740 3.737434 0.561963 0.000000 0.000000 0.000000 2.042770 12.103407 -1.904923 10.854858 12.876787 -2.383714 -47.311728 10.887146 -87.554887 0.000000 0.000000 0.000000 5.583376 18.586795 -11.510781 3.591319 19.345180 21.300749 35.594325 -33.911243 52.210242 0.000000 0.000000 0.000000 3.493735 0.532921 -0.967783 3.428713 -0.817232 -0.186772 3.398204 0.767556 1.333892 0.000000 0.000000 0.000000 -0.526174 0.708524 2.609595 -0.333754 -0.159829 0.057173 -0.340840 -0.117248 -0.149834 0.000000 0.000000 0.000000 
-193.516495 -105.572685 1157.170044 -1.587976 0.084317 0.258411 -1.170196 -6.807989 2.099627 -1.361418 0.852518 -0.457087 -1.326859 -1.562145 0.402418 -0.225068 3.775994 0.546345 0.000000 0.000000 0.000000 2.111937 12.112112 -1.806886 10.760829 12.948911 -2.338654 -47.328188 10.912101 -87.483820 0.000000 0.000000 0.000000 5.501804 18.593815 -11.516413 3.501188 19.336457 21.311745 35.524059 -33.911976 52.221807 0.000000 0.000000 0.000000 3.486047 0.473830 -0.979467 3.421060 -0.797303 -0.188917 3.390512 0.779570 1.327983 0.000000 0.000000 0.000000 -0.516849 0.666759 2.604930 -0.326418 -0.162078 0.066476 -0.334230 -0.095281 -0.146510 0.000000 0.000000 0.000000 
-193.971207 -105.267693 1157.187012 -1.612583 0.107300 0.247796 -1.118979 -6.823252 2.039013 -1.302779 0.852440 -0.447005 -1.270315 -1.563647 0.391284 -0.221998 3.805531 0.525914 0.000000 0.000000 0.000000 2.190612 12.114717 -1.714995 10.686721 13.016641 -2.317814 -47.339646 10.937304 -87.439707 0.000000 0.000000 0.000000 5.411691 18.601984 -11.525840 3.426332 19.329887 21.291742 35.467179 -33.911639 52.194892 0.000000 0.000000 0.000000 3.481435 0.404486 -0.996436 3.416096 -0.774613 -0.189649 3.385458 0.790858 1.323398 0.000000 0.000000 0.000000 -0.503939 0.614291 2.593982 -0.316560 -0.158392 0.079985 -0.325116 -0.070535 -0.142046 0.000000 0.000000 0.000000 
-194.416016 -104.923737 1157.192017 -1.633589 0.133051 0.232466 -1.071424 -6.836336 1.989084 -1.248898 0.851539 -0.439316 -1.217970 -1.564501 0.383188 -0.219362 3.829532 0.508222 0.000000 0.000000 0.000000 2.280452 12.114289 -1.613201 10.637665 13.085016 -2.324726 -47.338471 10.968132 -87.431663 0.000000 0.000000 0.000000 5.308045 18.620140 -11.534437 3.365503 19.335092 21.253960 35.424677 -33.915684 52.144911 0.000000 0.000000 0.000000 3.474844 0.337346 -1.009974 3.409394 -0.760535 -0.191849 3.378816 0.803853 1.317751 0.000000 0.000000 0.000000 -0.492028 0.559512 2.586014 -0.307539 -0.156337 0.093933 -0.316979 -0.042339 -0.137929 0.000000 0.000000 0.000000 
-194.861053 -104.514023 1157.197021 -1.652798 0.164717 0.211542 -1.029052 -6.849651 1.957413 -1.202067 0.855421 -0.435578 -1.172129 -1.569732 0.378657 -0.215823 3.842811 0.487875 0.000000 0.000000 0.000000 2.383896 12.108766 -1.512476 10.624628 13.150693 -2.355849 -47.322726 11.004493 -87.471214 0.000000 0.000000 0.000000 5.197296 18.648999 -11.549168 3.330272 19.354397 21.194915 35.402488 -33.928877 52.057308 0.000000 0.000000 0.000000 3.467669 0.267811 -1.021858 3.402172 -0.754670 -0.194202 3.371834 0.818997 1.311501 0.000000 0.000000 0.000000 -0.480271 0.497253 2.580882 -0.298627 -0.153953 0.107429 -0.309045 -0.009083 -0.133793 0.000000 0.000000 0.000000 
-195.301468 -104.073647 1157.185059 -1.670088 0.198029 0.187515 -0.987786 -6.858522 1.936450 -1.157615 0.856984 -0.436746 -1.127752 -1.570689 0.377436 -0.213598 3.853315 0.474050 0.000000 0.000000 0.000000 2.497887 12.100903 -1.396378 10.626371 13.219060 -2.416884 -47.297121 11.046213 -87.535031 0.000000 0.000000 0.000000 5.070474 18.685191 -11.559295 3.300659 19.381528 21.119365 35.388931 -33.941352 51.954401 0.000000 0.000000 0.000000 3.458911 0.200048 -1.031217 3.393615 -0.754880 -0.198600 3.363581 0.835021 1.304504 0.000000 0.000000 0.000000 -0.469069 0.434002 2.576716 -0.290260 -0.153594 0.122444 -0.301837 0.027754 -0.129894 0.000000 0.000000 0.000000 
-195.734634 -103.665710 1157.128052 -1.668897 0.227621 0.163942 -0.948807 -6.858018 1.908564 -1.115043 0.839578 -0.441834 -1.083924 -1.552941 0.378520 -0.216693 3.878068 0.482825 0.000000 0.000000 0.000000 2.624177 12.093084 -1.233039 10.608955 13.300935 -2.519082 -47.271802 11.091551 -87.592165 0.000000 0.000000 0.000000 4.905245 18.723987 -11.554651 3.252635 19.411039 21.042782 35.368943 -33.940537 51.874965 0.000000 0.000000 0.000000 3.441312 0.141602 -1.034520 3.377020 -0.760570 -0.209995 3.347257 0.851526 1.293847 0.000000 0.000000 0.000000 -0.464010 0.375595 2.573514 -0.287762 -0.158003 0.138825 -0.300800 0.067877 -0.128592 0.000000 0.000000 0.000000 
-196.427734 -103.217690 1157.027954 -1.483701 0.284149 0.165050 -0.993382 -6.872932 1.870251 -1.155070 0.787841 -0.463442 -1.118660 -1.508534 0.393716 -0.224753 3.947355 0.510009 0.000000 0.000000 0.000000 2.871872 12.048945 -0.996218 10.561394 13.405444 -2.685620 -47.283632 11.118942 -87.685837 0.000000 0.000000 0.000000 4.647692 18.731626 -11.623144 3.295305 19.454508 21.015810 35.384706 -33.918522 51.795412 0.000000 0.000000 0.000000 3.356742 0.050838 -1.054259 3.294050 -0.753632 -0.237046 3.264604 0.858220 1.256055 0.000000 0.000000 0.000000 -0.513864 0.234829 2.548471 -0.343609 -0.132398 0.149001 -0.358398 0.125908 -0.152260 0.000000 0.000000 0.000000 
-196.916138 -102.840889 1156.887939 -1.405422 0.316064 0.148433 -0.980297 -6.863842 1.832065 -1.137993 0.736080 -0.480845 -1.097053 -1.456785 0.403298 -0.237405 4.003840 0.559207 0.000000 0.000000 0.000000 3.051620 12.030884 -0.739245 10.510983 13.514311 -2.874154 -47.265527 11.167233 -87.748126 0.000000 0.000000 0.000000 4.397872 18.767883 -11.614184 3.245400 19.492396 20.946520 35.366046 -33.891128 51.746891 0.000000 0.000000 0.000000 3.307946 -0.001769 -1.052532 3.247700 -0.765808 -0.264251 3.218479 0.872706 1.232693 0.000000 0.000000 0.000000 -0.532693 0.161716 2.540701 -0.365499 -0.136953 0.165873 -0.382344 0.177350 -0.161519 0.000000 0.000000 0.000000 
